<mxfile host="app.diagrams.net" agent="Mozilla/5.0 (Windows NT 10.0; Win64; x64) AppleWebKit/537.36 (KHTML, like Gecko) Chrome/129.0.0.0 Safari/537.36" version="24.7.16">
  <diagram name="PÃ¡gina-1" id="_TZk-VBSfBG-fOWsmnnx">
    <mxGraphModel grid="1" page="1" gridSize="10" guides="1" tooltips="1" connect="1" arrows="1" fold="1" pageScale="1" pageWidth="827" pageHeight="1169" math="0" shadow="0">
      <root>
        <mxCell id="0" />
        <mxCell id="1" parent="0" />
        <mxCell id="JfAFxv9XHzVIEhKvCDaF-9" style="edgeStyle=orthogonalEdgeStyle;rounded=0;orthogonalLoop=1;jettySize=auto;html=1;entryX=0;entryY=0.5;entryDx=0;entryDy=0;fillColor=#f8cecc;strokeColor=#b85450;" edge="1" parent="1" source="JfAFxv9XHzVIEhKvCDaF-1" target="JfAFxv9XHzVIEhKvCDaF-2">
          <mxGeometry relative="1" as="geometry" />
        </mxCell>
        <mxCell id="1YkeTyR81IGIItmo_7Jy-1" value="1" style="edgeLabel;html=1;align=center;verticalAlign=middle;resizable=0;points=[];" connectable="0" vertex="1" parent="JfAFxv9XHzVIEhKvCDaF-9">
          <mxGeometry x="0.248" y="1" relative="1" as="geometry">
            <mxPoint x="-1" y="-9" as="offset" />
          </mxGeometry>
        </mxCell>
        <mxCell id="JfAFxv9XHzVIEhKvCDaF-1" value="1.1" style="ellipse;whiteSpace=wrap;html=1;aspect=fixed;" vertex="1" parent="1">
          <mxGeometry x="10" y="10" width="40" height="40" as="geometry" />
        </mxCell>
        <mxCell id="JfAFxv9XHzVIEhKvCDaF-13" style="edgeStyle=orthogonalEdgeStyle;rounded=0;orthogonalLoop=1;jettySize=auto;html=1;entryX=0;entryY=0.5;entryDx=0;entryDy=0;fillColor=#f8cecc;strokeColor=#b85450;" edge="1" parent="1" source="JfAFxv9XHzVIEhKvCDaF-2" target="JfAFxv9XHzVIEhKvCDaF-3">
          <mxGeometry relative="1" as="geometry" />
        </mxCell>
        <mxCell id="1YkeTyR81IGIItmo_7Jy-2" value="3" style="edgeLabel;html=1;align=center;verticalAlign=middle;resizable=0;points=[];" connectable="0" vertex="1" parent="JfAFxv9XHzVIEhKvCDaF-13">
          <mxGeometry x="-0.2564" relative="1" as="geometry">
            <mxPoint x="-2" y="-10" as="offset" />
          </mxGeometry>
        </mxCell>
        <mxCell id="JfAFxv9XHzVIEhKvCDaF-2" value="1.2" style="ellipse;whiteSpace=wrap;html=1;aspect=fixed;" vertex="1" parent="1">
          <mxGeometry x="80" y="10" width="40" height="40" as="geometry" />
        </mxCell>
        <mxCell id="JfAFxv9XHzVIEhKvCDaF-11" style="edgeStyle=orthogonalEdgeStyle;rounded=0;orthogonalLoop=1;jettySize=auto;html=1;entryX=0;entryY=0.5;entryDx=0;entryDy=0;fillColor=#f8cecc;strokeColor=#b85450;" edge="1" parent="1" source="JfAFxv9XHzVIEhKvCDaF-3" target="JfAFxv9XHzVIEhKvCDaF-4">
          <mxGeometry relative="1" as="geometry" />
        </mxCell>
        <mxCell id="1YkeTyR81IGIItmo_7Jy-3" value="3" style="edgeLabel;html=1;align=center;verticalAlign=middle;resizable=0;points=[];" connectable="0" vertex="1" parent="JfAFxv9XHzVIEhKvCDaF-11">
          <mxGeometry x="-0.2606" y="-1" relative="1" as="geometry">
            <mxPoint y="-10" as="offset" />
          </mxGeometry>
        </mxCell>
        <mxCell id="JfAFxv9XHzVIEhKvCDaF-3" value="1.2.1" style="ellipse;whiteSpace=wrap;html=1;aspect=fixed;" vertex="1" parent="1">
          <mxGeometry x="150" y="7.5" width="42.5" height="42.5" as="geometry" />
        </mxCell>
        <mxCell id="1YkeTyR81IGIItmo_7Jy-7" style="edgeStyle=orthogonalEdgeStyle;rounded=0;orthogonalLoop=1;jettySize=auto;html=1;entryX=0;entryY=0.5;entryDx=0;entryDy=0;fillColor=#f8cecc;strokeColor=#b85450;" edge="1" parent="1" source="JfAFxv9XHzVIEhKvCDaF-4" target="1YkeTyR81IGIItmo_7Jy-6">
          <mxGeometry relative="1" as="geometry" />
        </mxCell>
        <mxCell id="1YkeTyR81IGIItmo_7Jy-54" value="3" style="edgeLabel;html=1;align=center;verticalAlign=middle;resizable=0;points=[];" connectable="0" vertex="1" parent="1YkeTyR81IGIItmo_7Jy-7">
          <mxGeometry x="0.0419" y="6" relative="1" as="geometry">
            <mxPoint x="-2" y="-2" as="offset" />
          </mxGeometry>
        </mxCell>
        <mxCell id="JfAFxv9XHzVIEhKvCDaF-4" value="1.2.2" style="ellipse;whiteSpace=wrap;html=1;aspect=fixed;" vertex="1" parent="1">
          <mxGeometry x="220" y="6.88" width="43.12" height="43.12" as="geometry" />
        </mxCell>
        <mxCell id="JfAFxv9XHzVIEhKvCDaF-26" style="edgeStyle=orthogonalEdgeStyle;rounded=0;orthogonalLoop=1;jettySize=auto;html=1;" edge="1" parent="1" source="JfAFxv9XHzVIEhKvCDaF-5" target="JfAFxv9XHzVIEhKvCDaF-20">
          <mxGeometry relative="1" as="geometry" />
        </mxCell>
        <mxCell id="JfAFxv9XHzVIEhKvCDaF-28" style="edgeStyle=orthogonalEdgeStyle;rounded=0;orthogonalLoop=1;jettySize=auto;html=1;entryX=0;entryY=0.5;entryDx=0;entryDy=0;" edge="1" parent="1" source="JfAFxv9XHzVIEhKvCDaF-6" target="JfAFxv9XHzVIEhKvCDaF-27">
          <mxGeometry relative="1" as="geometry" />
        </mxCell>
        <mxCell id="1YkeTyR81IGIItmo_7Jy-19" value="4" style="edgeLabel;html=1;align=center;verticalAlign=middle;resizable=0;points=[];" connectable="0" vertex="1" parent="JfAFxv9XHzVIEhKvCDaF-28">
          <mxGeometry x="-0.0606" y="1" relative="1" as="geometry">
            <mxPoint y="-9" as="offset" />
          </mxGeometry>
        </mxCell>
        <mxCell id="JfAFxv9XHzVIEhKvCDaF-6" value="1.4" style="ellipse;whiteSpace=wrap;html=1;aspect=fixed;" vertex="1" parent="1">
          <mxGeometry x="386.24" y="60" width="40" height="40" as="geometry" />
        </mxCell>
        <mxCell id="JfAFxv9XHzVIEhKvCDaF-24" style="edgeStyle=orthogonalEdgeStyle;rounded=0;orthogonalLoop=1;jettySize=auto;html=1;entryX=0;entryY=0.5;entryDx=0;entryDy=0;" edge="1" parent="1" source="JfAFxv9XHzVIEhKvCDaF-7" target="JfAFxv9XHzVIEhKvCDaF-21">
          <mxGeometry relative="1" as="geometry" />
        </mxCell>
        <mxCell id="1YkeTyR81IGIItmo_7Jy-20" value="4" style="edgeLabel;html=1;align=center;verticalAlign=middle;resizable=0;points=[];" connectable="0" vertex="1" parent="JfAFxv9XHzVIEhKvCDaF-24">
          <mxGeometry x="-0.259" y="1" relative="1" as="geometry">
            <mxPoint y="-9" as="offset" />
          </mxGeometry>
        </mxCell>
        <mxCell id="JfAFxv9XHzVIEhKvCDaF-7" value="1.5" style="ellipse;whiteSpace=wrap;html=1;aspect=fixed;" vertex="1" parent="1">
          <mxGeometry x="384.37" y="110" width="40" height="40" as="geometry" />
        </mxCell>
        <mxCell id="JfAFxv9XHzVIEhKvCDaF-25" style="edgeStyle=orthogonalEdgeStyle;rounded=0;orthogonalLoop=1;jettySize=auto;html=1;entryX=0;entryY=0.5;entryDx=0;entryDy=0;" edge="1" parent="1" source="JfAFxv9XHzVIEhKvCDaF-18" target="JfAFxv9XHzVIEhKvCDaF-22">
          <mxGeometry relative="1" as="geometry" />
        </mxCell>
        <mxCell id="1YkeTyR81IGIItmo_7Jy-21" value="4" style="edgeLabel;html=1;align=center;verticalAlign=middle;resizable=0;points=[];" connectable="0" vertex="1" parent="JfAFxv9XHzVIEhKvCDaF-25">
          <mxGeometry x="-0.3117" relative="1" as="geometry">
            <mxPoint y="-10" as="offset" />
          </mxGeometry>
        </mxCell>
        <mxCell id="JfAFxv9XHzVIEhKvCDaF-18" value="1.6" style="ellipse;whiteSpace=wrap;html=1;aspect=fixed;" vertex="1" parent="1">
          <mxGeometry x="384.37" y="160" width="40" height="40" as="geometry" />
        </mxCell>
        <mxCell id="JfAFxv9XHzVIEhKvCDaF-30" style="edgeStyle=orthogonalEdgeStyle;rounded=0;orthogonalLoop=1;jettySize=auto;html=1;entryX=0.5;entryY=0;entryDx=0;entryDy=0;fillColor=#f8cecc;strokeColor=#b85450;" edge="1" parent="1" source="JfAFxv9XHzVIEhKvCDaF-20" target="JfAFxv9XHzVIEhKvCDaF-29">
          <mxGeometry relative="1" as="geometry" />
        </mxCell>
        <mxCell id="1YkeTyR81IGIItmo_7Jy-22" value="3" style="edgeLabel;html=1;align=center;verticalAlign=middle;resizable=0;points=[];" connectable="0" vertex="1" parent="JfAFxv9XHzVIEhKvCDaF-30">
          <mxGeometry x="-0.5414" relative="1" as="geometry">
            <mxPoint x="-1" y="-9" as="offset" />
          </mxGeometry>
        </mxCell>
        <mxCell id="JfAFxv9XHzVIEhKvCDaF-32" style="edgeStyle=orthogonalEdgeStyle;rounded=0;orthogonalLoop=1;jettySize=auto;html=1;entryX=0;entryY=0.5;entryDx=0;entryDy=0;" edge="1" parent="1" source="JfAFxv9XHzVIEhKvCDaF-21" target="JfAFxv9XHzVIEhKvCDaF-29">
          <mxGeometry relative="1" as="geometry" />
        </mxCell>
        <mxCell id="1YkeTyR81IGIItmo_7Jy-24" value="3" style="edgeLabel;html=1;align=center;verticalAlign=middle;resizable=0;points=[];" connectable="0" vertex="1" parent="JfAFxv9XHzVIEhKvCDaF-32">
          <mxGeometry x="-0.3232" y="1" relative="1" as="geometry">
            <mxPoint x="-3" y="-9" as="offset" />
          </mxGeometry>
        </mxCell>
        <mxCell id="JfAFxv9XHzVIEhKvCDaF-21" value="1.5.1" style="ellipse;whiteSpace=wrap;html=1;aspect=fixed;" vertex="1" parent="1">
          <mxGeometry x="470" y="110" width="40" height="40" as="geometry" />
        </mxCell>
        <mxCell id="JfAFxv9XHzVIEhKvCDaF-33" style="edgeStyle=orthogonalEdgeStyle;rounded=0;orthogonalLoop=1;jettySize=auto;html=1;" edge="1" parent="1" source="JfAFxv9XHzVIEhKvCDaF-22" target="JfAFxv9XHzVIEhKvCDaF-29">
          <mxGeometry relative="1" as="geometry" />
        </mxCell>
        <mxCell id="1YkeTyR81IGIItmo_7Jy-25" value="3" style="edgeLabel;html=1;align=center;verticalAlign=middle;resizable=0;points=[];" connectable="0" vertex="1" parent="JfAFxv9XHzVIEhKvCDaF-33">
          <mxGeometry x="-0.3781" y="2" relative="1" as="geometry">
            <mxPoint x="3" y="-9" as="offset" />
          </mxGeometry>
        </mxCell>
        <mxCell id="JfAFxv9XHzVIEhKvCDaF-22" value="1.6.1" style="ellipse;whiteSpace=wrap;html=1;aspect=fixed;" vertex="1" parent="1">
          <mxGeometry x="469" y="160" width="41" height="41" as="geometry" />
        </mxCell>
        <mxCell id="JfAFxv9XHzVIEhKvCDaF-31" style="edgeStyle=orthogonalEdgeStyle;rounded=0;orthogonalLoop=1;jettySize=auto;html=1;entryX=0;entryY=0.5;entryDx=0;entryDy=0;" edge="1" parent="1" source="JfAFxv9XHzVIEhKvCDaF-27" target="JfAFxv9XHzVIEhKvCDaF-29">
          <mxGeometry relative="1" as="geometry" />
        </mxCell>
        <mxCell id="1YkeTyR81IGIItmo_7Jy-23" value="3" style="edgeLabel;html=1;align=center;verticalAlign=middle;resizable=0;points=[];" connectable="0" vertex="1" parent="JfAFxv9XHzVIEhKvCDaF-31">
          <mxGeometry x="-0.5937" y="1" relative="1" as="geometry">
            <mxPoint y="-9" as="offset" />
          </mxGeometry>
        </mxCell>
        <mxCell id="JfAFxv9XHzVIEhKvCDaF-27" value="1.4.1" style="ellipse;whiteSpace=wrap;html=1;aspect=fixed;" vertex="1" parent="1">
          <mxGeometry x="470" y="60" width="40" height="40" as="geometry" />
        </mxCell>
        <mxCell id="JfAFxv9XHzVIEhKvCDaF-42" style="edgeStyle=orthogonalEdgeStyle;rounded=0;orthogonalLoop=1;jettySize=auto;html=1;entryX=0;entryY=0.5;entryDx=0;entryDy=0;fillColor=#f8cecc;strokeColor=#b85450;" edge="1" parent="1" source="JfAFxv9XHzVIEhKvCDaF-29" target="JfAFxv9XHzVIEhKvCDaF-34">
          <mxGeometry relative="1" as="geometry" />
        </mxCell>
        <mxCell id="1YkeTyR81IGIItmo_7Jy-26" value="4" style="edgeLabel;html=1;align=center;verticalAlign=middle;resizable=0;points=[];" connectable="0" vertex="1" parent="JfAFxv9XHzVIEhKvCDaF-42">
          <mxGeometry x="-0.3845" y="2" relative="1" as="geometry">
            <mxPoint y="-8" as="offset" />
          </mxGeometry>
        </mxCell>
        <mxCell id="JfAFxv9XHzVIEhKvCDaF-29" value="1.7" style="ellipse;whiteSpace=wrap;html=1;aspect=fixed;" vertex="1" parent="1">
          <mxGeometry x="580" y="110" width="40" height="40" as="geometry" />
        </mxCell>
        <mxCell id="JfAFxv9XHzVIEhKvCDaF-46" style="edgeStyle=orthogonalEdgeStyle;rounded=0;orthogonalLoop=1;jettySize=auto;html=1;" edge="1" parent="1" source="JfAFxv9XHzVIEhKvCDaF-34" target="JfAFxv9XHzVIEhKvCDaF-45">
          <mxGeometry relative="1" as="geometry">
            <Array as="points">
              <mxPoint x="680" y="240" />
              <mxPoint x="30" y="240" />
            </Array>
          </mxGeometry>
        </mxCell>
        <mxCell id="JfAFxv9XHzVIEhKvCDaF-47" style="edgeStyle=orthogonalEdgeStyle;rounded=0;orthogonalLoop=1;jettySize=auto;html=1;entryX=0;entryY=0.5;entryDx=0;entryDy=0;fillColor=#f8cecc;strokeColor=#b85450;" edge="1" parent="1" source="JfAFxv9XHzVIEhKvCDaF-34" target="JfAFxv9XHzVIEhKvCDaF-43">
          <mxGeometry relative="1" as="geometry">
            <Array as="points">
              <mxPoint x="680" y="240" />
              <mxPoint x="30" y="240" />
              <mxPoint x="30" y="290" />
            </Array>
          </mxGeometry>
        </mxCell>
        <mxCell id="1YkeTyR81IGIItmo_7Jy-27" value="1" style="edgeLabel;html=1;align=center;verticalAlign=middle;resizable=0;points=[];" connectable="0" vertex="1" parent="JfAFxv9XHzVIEhKvCDaF-47">
          <mxGeometry x="-0.0549" y="-4" relative="1" as="geometry">
            <mxPoint x="-62" as="offset" />
          </mxGeometry>
        </mxCell>
        <mxCell id="JfAFxv9XHzVIEhKvCDaF-34" value="1.8" style="ellipse;whiteSpace=wrap;html=1;aspect=fixed;" vertex="1" parent="1">
          <mxGeometry x="660" y="110" width="40" height="40" as="geometry" />
        </mxCell>
        <mxCell id="JfAFxv9XHzVIEhKvCDaF-39" value="" style="edgeStyle=orthogonalEdgeStyle;rounded=0;orthogonalLoop=1;jettySize=auto;html=1;entryX=0;entryY=0.5;entryDx=0;entryDy=0;fillColor=#f8cecc;strokeColor=#b85450;" edge="1" parent="1" source="JfAFxv9XHzVIEhKvCDaF-5" target="JfAFxv9XHzVIEhKvCDaF-20">
          <mxGeometry relative="1" as="geometry">
            <mxPoint x="345" y="31" as="sourcePoint" />
            <mxPoint x="499" y="95" as="targetPoint" />
          </mxGeometry>
        </mxCell>
        <mxCell id="1YkeTyR81IGIItmo_7Jy-18" value="4" style="edgeLabel;html=1;align=center;verticalAlign=middle;resizable=0;points=[];" connectable="0" vertex="1" parent="JfAFxv9XHzVIEhKvCDaF-39">
          <mxGeometry x="-0.0715" y="-2" relative="1" as="geometry">
            <mxPoint y="-11" as="offset" />
          </mxGeometry>
        </mxCell>
        <mxCell id="JfAFxv9XHzVIEhKvCDaF-20" value="1.3.1" style="ellipse;whiteSpace=wrap;html=1;aspect=fixed;" vertex="1" parent="1">
          <mxGeometry x="468.75" y="7.5" width="42.5" height="42.5" as="geometry" />
        </mxCell>
        <mxCell id="JfAFxv9XHzVIEhKvCDaF-49" style="edgeStyle=orthogonalEdgeStyle;rounded=0;orthogonalLoop=1;jettySize=auto;html=1;entryX=0.5;entryY=0;entryDx=0;entryDy=0;" edge="1" parent="1" source="JfAFxv9XHzVIEhKvCDaF-43" target="JfAFxv9XHzVIEhKvCDaF-48">
          <mxGeometry relative="1" as="geometry" />
        </mxCell>
        <mxCell id="1YkeTyR81IGIItmo_7Jy-29" value="3" style="edgeLabel;html=1;align=center;verticalAlign=middle;resizable=0;points=[];" connectable="0" vertex="1" parent="JfAFxv9XHzVIEhKvCDaF-49">
          <mxGeometry x="-0.2778" y="1" relative="1" as="geometry">
            <mxPoint as="offset" />
          </mxGeometry>
        </mxCell>
        <mxCell id="JfAFxv9XHzVIEhKvCDaF-43" value="2.1" style="ellipse;whiteSpace=wrap;html=1;aspect=fixed;" vertex="1" parent="1">
          <mxGeometry x="40" y="270" width="40" height="40" as="geometry" />
        </mxCell>
        <mxCell id="JfAFxv9XHzVIEhKvCDaF-50" style="edgeStyle=orthogonalEdgeStyle;rounded=0;orthogonalLoop=1;jettySize=auto;html=1;entryX=0.5;entryY=1;entryDx=0;entryDy=0;fillColor=#f8cecc;strokeColor=#b85450;" edge="1" parent="1" source="JfAFxv9XHzVIEhKvCDaF-45" target="JfAFxv9XHzVIEhKvCDaF-48">
          <mxGeometry relative="1" as="geometry" />
        </mxCell>
        <mxCell id="1YkeTyR81IGIItmo_7Jy-30" value="4" style="edgeLabel;html=1;align=center;verticalAlign=middle;resizable=0;points=[];" connectable="0" vertex="1" parent="JfAFxv9XHzVIEhKvCDaF-50">
          <mxGeometry x="-0.4819" y="-1" relative="1" as="geometry">
            <mxPoint as="offset" />
          </mxGeometry>
        </mxCell>
        <mxCell id="JfAFxv9XHzVIEhKvCDaF-45" value="2.2" style="ellipse;whiteSpace=wrap;html=1;aspect=fixed;" vertex="1" parent="1">
          <mxGeometry x="40" y="330" width="40" height="40" as="geometry" />
        </mxCell>
        <mxCell id="JfAFxv9XHzVIEhKvCDaF-52" style="edgeStyle=orthogonalEdgeStyle;rounded=0;orthogonalLoop=1;jettySize=auto;html=1;entryX=0;entryY=0.5;entryDx=0;entryDy=0;" edge="1" parent="1" source="JfAFxv9XHzVIEhKvCDaF-48" target="JfAFxv9XHzVIEhKvCDaF-51">
          <mxGeometry relative="1" as="geometry" />
        </mxCell>
        <mxCell id="JfAFxv9XHzVIEhKvCDaF-48" value="2.3" style="ellipse;whiteSpace=wrap;html=1;aspect=fixed;" vertex="1" parent="1">
          <mxGeometry x="110" y="300" width="40" height="40" as="geometry" />
        </mxCell>
        <mxCell id="JfAFxv9XHzVIEhKvCDaF-51" value="2.3.1" style="ellipse;whiteSpace=wrap;html=1;aspect=fixed;" vertex="1" parent="1">
          <mxGeometry x="200" y="270" width="40" height="40" as="geometry" />
        </mxCell>
        <mxCell id="1YkeTyR81IGIItmo_7Jy-38" style="edgeStyle=orthogonalEdgeStyle;rounded=0;orthogonalLoop=1;jettySize=auto;html=1;entryX=0;entryY=0.5;entryDx=0;entryDy=0;fillColor=#f8cecc;strokeColor=#b85450;" edge="1" parent="1" source="JfAFxv9XHzVIEhKvCDaF-53" target="JfAFxv9XHzVIEhKvCDaF-58">
          <mxGeometry relative="1" as="geometry" />
        </mxCell>
        <mxCell id="1YkeTyR81IGIItmo_7Jy-39" value="2" style="edgeLabel;html=1;align=center;verticalAlign=middle;resizable=0;points=[];" connectable="0" vertex="1" parent="1YkeTyR81IGIItmo_7Jy-38">
          <mxGeometry x="-0.2963" y="-1" relative="1" as="geometry">
            <mxPoint y="9" as="offset" />
          </mxGeometry>
        </mxCell>
        <mxCell id="JfAFxv9XHzVIEhKvCDaF-53" value="2.3.2" style="ellipse;whiteSpace=wrap;html=1;aspect=fixed;" vertex="1" parent="1">
          <mxGeometry x="263.12" y="320" width="40" height="40" as="geometry" />
        </mxCell>
        <mxCell id="JfAFxv9XHzVIEhKvCDaF-54" style="edgeStyle=orthogonalEdgeStyle;rounded=0;orthogonalLoop=1;jettySize=auto;html=1;entryX=0.097;entryY=0.65;entryDx=0;entryDy=0;entryPerimeter=0;fillColor=#f8cecc;strokeColor=#b85450;" edge="1" parent="1" source="JfAFxv9XHzVIEhKvCDaF-48" target="JfAFxv9XHzVIEhKvCDaF-53">
          <mxGeometry relative="1" as="geometry" />
        </mxCell>
        <mxCell id="1YkeTyR81IGIItmo_7Jy-31" value="2" style="edgeLabel;html=1;align=center;verticalAlign=middle;resizable=0;points=[];" connectable="0" vertex="1" parent="JfAFxv9XHzVIEhKvCDaF-54">
          <mxGeometry x="-0.5956" y="2" relative="1" as="geometry">
            <mxPoint x="-8" y="-8" as="offset" />
          </mxGeometry>
        </mxCell>
        <mxCell id="1YkeTyR81IGIItmo_7Jy-45" value="2" style="edgeLabel;html=1;align=center;verticalAlign=middle;resizable=0;points=[];" connectable="0" vertex="1" parent="JfAFxv9XHzVIEhKvCDaF-54">
          <mxGeometry x="0.3219" relative="1" as="geometry">
            <mxPoint as="offset" />
          </mxGeometry>
        </mxCell>
        <mxCell id="JfAFxv9XHzVIEhKvCDaF-62" style="edgeStyle=orthogonalEdgeStyle;rounded=0;orthogonalLoop=1;jettySize=auto;html=1;entryX=0;entryY=0.5;entryDx=0;entryDy=0;" edge="1" parent="1" source="JfAFxv9XHzVIEhKvCDaF-57" target="JfAFxv9XHzVIEhKvCDaF-61">
          <mxGeometry relative="1" as="geometry" />
        </mxCell>
        <mxCell id="1YkeTyR81IGIItmo_7Jy-42" value="21" style="edgeLabel;html=1;align=center;verticalAlign=middle;resizable=0;points=[];" connectable="0" vertex="1" parent="JfAFxv9XHzVIEhKvCDaF-62">
          <mxGeometry x="-0.5971" y="1" relative="1" as="geometry">
            <mxPoint as="offset" />
          </mxGeometry>
        </mxCell>
        <mxCell id="JfAFxv9XHzVIEhKvCDaF-57" value="2.4" style="ellipse;whiteSpace=wrap;html=1;aspect=fixed;" vertex="1" parent="1">
          <mxGeometry x="360" y="270" width="40" height="40" as="geometry" />
        </mxCell>
        <mxCell id="JfAFxv9XHzVIEhKvCDaF-64" style="edgeStyle=orthogonalEdgeStyle;rounded=0;orthogonalLoop=1;jettySize=auto;html=1;entryX=0;entryY=0.5;entryDx=0;entryDy=0;fillColor=#f8cecc;strokeColor=#b85450;" edge="1" parent="1" source="JfAFxv9XHzVIEhKvCDaF-58" target="JfAFxv9XHzVIEhKvCDaF-61">
          <mxGeometry relative="1" as="geometry" />
        </mxCell>
        <mxCell id="1YkeTyR81IGIItmo_7Jy-43" value="21" style="edgeLabel;html=1;align=center;verticalAlign=middle;resizable=0;points=[];" connectable="0" vertex="1" parent="JfAFxv9XHzVIEhKvCDaF-64">
          <mxGeometry x="-0.2776" relative="1" as="geometry">
            <mxPoint as="offset" />
          </mxGeometry>
        </mxCell>
        <mxCell id="JfAFxv9XHzVIEhKvCDaF-58" value="2.5" style="ellipse;whiteSpace=wrap;html=1;aspect=fixed;" vertex="1" parent="1">
          <mxGeometry x="360" y="330" width="40" height="40" as="geometry" />
        </mxCell>
        <mxCell id="JfAFxv9XHzVIEhKvCDaF-66" style="edgeStyle=orthogonalEdgeStyle;rounded=0;orthogonalLoop=1;jettySize=auto;html=1;entryX=0;entryY=0.5;entryDx=0;entryDy=0;fillColor=#f8cecc;strokeColor=#b85450;" edge="1" parent="1" source="JfAFxv9XHzVIEhKvCDaF-61" target="JfAFxv9XHzVIEhKvCDaF-65">
          <mxGeometry relative="1" as="geometry" />
        </mxCell>
        <mxCell id="1YkeTyR81IGIItmo_7Jy-44" value="8" style="edgeLabel;html=1;align=center;verticalAlign=middle;resizable=0;points=[];" connectable="0" vertex="1" parent="JfAFxv9XHzVIEhKvCDaF-66">
          <mxGeometry x="-0.5452" relative="1" as="geometry">
            <mxPoint y="-10" as="offset" />
          </mxGeometry>
        </mxCell>
        <mxCell id="JfAFxv9XHzVIEhKvCDaF-61" value="2.6" style="ellipse;whiteSpace=wrap;html=1;aspect=fixed;" vertex="1" parent="1">
          <mxGeometry x="458.5" y="300" width="40" height="40" as="geometry" />
        </mxCell>
        <mxCell id="JfAFxv9XHzVIEhKvCDaF-70" style="edgeStyle=orthogonalEdgeStyle;rounded=0;orthogonalLoop=1;jettySize=auto;html=1;entryX=0;entryY=0.5;entryDx=0;entryDy=0;" edge="1" parent="1" source="JfAFxv9XHzVIEhKvCDaF-65" target="JfAFxv9XHzVIEhKvCDaF-67">
          <mxGeometry relative="1" as="geometry">
            <Array as="points">
              <mxPoint x="550" y="410" />
              <mxPoint x="20" y="410" />
              <mxPoint x="20" y="450" />
            </Array>
          </mxGeometry>
        </mxCell>
        <mxCell id="JfAFxv9XHzVIEhKvCDaF-71" style="edgeStyle=orthogonalEdgeStyle;rounded=0;orthogonalLoop=1;jettySize=auto;html=1;entryX=0;entryY=0.5;entryDx=0;entryDy=0;fillColor=#f8cecc;strokeColor=#b85450;" edge="1" parent="1" source="JfAFxv9XHzVIEhKvCDaF-65" target="JfAFxv9XHzVIEhKvCDaF-68">
          <mxGeometry relative="1" as="geometry">
            <Array as="points">
              <mxPoint x="550" y="410" />
              <mxPoint x="20" y="410" />
              <mxPoint x="20" y="510" />
            </Array>
          </mxGeometry>
        </mxCell>
        <mxCell id="1YkeTyR81IGIItmo_7Jy-46" value="4" style="edgeLabel;html=1;align=center;verticalAlign=middle;resizable=0;points=[];" connectable="0" vertex="1" parent="JfAFxv9XHzVIEhKvCDaF-71">
          <mxGeometry x="-0.0742" y="-1" relative="1" as="geometry">
            <mxPoint x="3" y="-9" as="offset" />
          </mxGeometry>
        </mxCell>
        <mxCell id="JfAFxv9XHzVIEhKvCDaF-65" value="2.7" style="ellipse;whiteSpace=wrap;html=1;aspect=fixed;" vertex="1" parent="1">
          <mxGeometry x="530" y="300" width="40" height="40" as="geometry" />
        </mxCell>
        <mxCell id="JfAFxv9XHzVIEhKvCDaF-72" style="edgeStyle=orthogonalEdgeStyle;rounded=0;orthogonalLoop=1;jettySize=auto;html=1;entryX=0;entryY=0.5;entryDx=0;entryDy=0;" edge="1" parent="1" source="JfAFxv9XHzVIEhKvCDaF-67" target="JfAFxv9XHzVIEhKvCDaF-69">
          <mxGeometry relative="1" as="geometry" />
        </mxCell>
        <mxCell id="1YkeTyR81IGIItmo_7Jy-47" value="7" style="edgeLabel;html=1;align=center;verticalAlign=middle;resizable=0;points=[];" connectable="0" vertex="1" parent="JfAFxv9XHzVIEhKvCDaF-72">
          <mxGeometry x="-0.5885" y="3" relative="1" as="geometry">
            <mxPoint as="offset" />
          </mxGeometry>
        </mxCell>
        <mxCell id="JfAFxv9XHzVIEhKvCDaF-67" value="3.1" style="ellipse;whiteSpace=wrap;html=1;aspect=fixed;" vertex="1" parent="1">
          <mxGeometry x="40" y="430" width="40" height="40" as="geometry" />
        </mxCell>
        <mxCell id="JfAFxv9XHzVIEhKvCDaF-73" style="edgeStyle=orthogonalEdgeStyle;rounded=0;orthogonalLoop=1;jettySize=auto;html=1;entryX=0;entryY=0.5;entryDx=0;entryDy=0;fillColor=#f8cecc;strokeColor=#b85450;" edge="1" parent="1" source="JfAFxv9XHzVIEhKvCDaF-68" target="JfAFxv9XHzVIEhKvCDaF-69">
          <mxGeometry relative="1" as="geometry" />
        </mxCell>
        <mxCell id="1YkeTyR81IGIItmo_7Jy-48" value="7" style="edgeLabel;html=1;align=center;verticalAlign=middle;resizable=0;points=[];" connectable="0" vertex="1" parent="JfAFxv9XHzVIEhKvCDaF-73">
          <mxGeometry x="-0.5732" y="-1" relative="1" as="geometry">
            <mxPoint as="offset" />
          </mxGeometry>
        </mxCell>
        <mxCell id="JfAFxv9XHzVIEhKvCDaF-68" value="3.2" style="ellipse;whiteSpace=wrap;html=1;aspect=fixed;" vertex="1" parent="1">
          <mxGeometry x="40" y="490" width="40" height="40" as="geometry" />
        </mxCell>
        <mxCell id="JfAFxv9XHzVIEhKvCDaF-75" style="edgeStyle=orthogonalEdgeStyle;rounded=0;orthogonalLoop=1;jettySize=auto;html=1;entryX=0;entryY=0.5;entryDx=0;entryDy=0;fillColor=#f8cecc;strokeColor=#b85450;" edge="1" parent="1" source="JfAFxv9XHzVIEhKvCDaF-69" target="JfAFxv9XHzVIEhKvCDaF-74">
          <mxGeometry relative="1" as="geometry" />
        </mxCell>
        <mxCell id="1YkeTyR81IGIItmo_7Jy-49" value="4" style="edgeLabel;html=1;align=center;verticalAlign=middle;resizable=0;points=[];" connectable="0" vertex="1" parent="JfAFxv9XHzVIEhKvCDaF-75">
          <mxGeometry x="-0.1421" relative="1" as="geometry">
            <mxPoint as="offset" />
          </mxGeometry>
        </mxCell>
        <mxCell id="JfAFxv9XHzVIEhKvCDaF-69" value="3.3" style="ellipse;whiteSpace=wrap;html=1;aspect=fixed;" vertex="1" parent="1">
          <mxGeometry x="140" y="460" width="40" height="40" as="geometry" />
        </mxCell>
        <mxCell id="JfAFxv9XHzVIEhKvCDaF-74" value="3.4" style="ellipse;whiteSpace=wrap;html=1;aspect=fixed;" vertex="1" parent="1">
          <mxGeometry x="221.56" y="460" width="40" height="40" as="geometry" />
        </mxCell>
        <mxCell id="JfAFxv9XHzVIEhKvCDaF-5" value="1.3" style="ellipse;whiteSpace=wrap;html=1;aspect=fixed;" vertex="1" parent="1">
          <mxGeometry x="384.37" y="8.13" width="41.87" height="41.87" as="geometry" />
        </mxCell>
        <mxCell id="1YkeTyR81IGIItmo_7Jy-9" style="edgeStyle=orthogonalEdgeStyle;rounded=0;orthogonalLoop=1;jettySize=auto;html=1;fillColor=#f8cecc;strokeColor=#b85450;" edge="1" parent="1" source="1YkeTyR81IGIItmo_7Jy-6">
          <mxGeometry relative="1" as="geometry">
            <mxPoint x="379.9999999999999" y="29.069999999999993" as="targetPoint" />
          </mxGeometry>
        </mxCell>
        <mxCell id="1YkeTyR81IGIItmo_7Jy-10" value="1" style="edgeLabel;html=1;align=center;verticalAlign=middle;resizable=0;points=[];" connectable="0" vertex="1" parent="1YkeTyR81IGIItmo_7Jy-9">
          <mxGeometry x="0.0426" relative="1" as="geometry">
            <mxPoint x="-1" y="-10" as="offset" />
          </mxGeometry>
        </mxCell>
        <mxCell id="1YkeTyR81IGIItmo_7Jy-13" style="edgeStyle=orthogonalEdgeStyle;rounded=0;orthogonalLoop=1;jettySize=auto;html=1;entryX=0;entryY=0.5;entryDx=0;entryDy=0;" edge="1" parent="1" source="1YkeTyR81IGIItmo_7Jy-6" target="JfAFxv9XHzVIEhKvCDaF-7">
          <mxGeometry relative="1" as="geometry">
            <Array as="points">
              <mxPoint x="320" y="130" />
            </Array>
          </mxGeometry>
        </mxCell>
        <mxCell id="1YkeTyR81IGIItmo_7Jy-15" value="1" style="edgeLabel;html=1;align=center;verticalAlign=middle;resizable=0;points=[];" connectable="0" vertex="1" parent="1YkeTyR81IGIItmo_7Jy-13">
          <mxGeometry x="0.5115" y="3" relative="1" as="geometry">
            <mxPoint x="1" y="-7" as="offset" />
          </mxGeometry>
        </mxCell>
        <mxCell id="1YkeTyR81IGIItmo_7Jy-14" style="edgeStyle=orthogonalEdgeStyle;rounded=0;orthogonalLoop=1;jettySize=auto;html=1;entryX=0;entryY=0.5;entryDx=0;entryDy=0;" edge="1" parent="1" source="1YkeTyR81IGIItmo_7Jy-6" target="JfAFxv9XHzVIEhKvCDaF-18">
          <mxGeometry relative="1" as="geometry">
            <Array as="points">
              <mxPoint x="320" y="180" />
            </Array>
          </mxGeometry>
        </mxCell>
        <mxCell id="1YkeTyR81IGIItmo_7Jy-16" value="1" style="edgeLabel;html=1;align=center;verticalAlign=middle;resizable=0;points=[];" connectable="0" vertex="1" parent="1YkeTyR81IGIItmo_7Jy-14">
          <mxGeometry x="0.6506" y="2" relative="1" as="geometry">
            <mxPoint y="-8" as="offset" />
          </mxGeometry>
        </mxCell>
        <mxCell id="1YkeTyR81IGIItmo_7Jy-6" value="1.2.3" style="ellipse;whiteSpace=wrap;html=1;aspect=fixed;" vertex="1" parent="1">
          <mxGeometry x="300" y="9.07" width="40" height="40" as="geometry" />
        </mxCell>
        <mxCell id="1YkeTyR81IGIItmo_7Jy-12" value="1" style="edgeStyle=orthogonalEdgeStyle;rounded=0;orthogonalLoop=1;jettySize=auto;html=1;entryX=0.02;entryY=0.623;entryDx=0;entryDy=0;entryPerimeter=0;" edge="1" parent="1" source="1YkeTyR81IGIItmo_7Jy-6" target="JfAFxv9XHzVIEhKvCDaF-6">
          <mxGeometry x="0.3553" y="5" relative="1" as="geometry">
            <Array as="points">
              <mxPoint x="320" y="80" />
              <mxPoint x="386" y="80" />
            </Array>
            <mxPoint as="offset" />
          </mxGeometry>
        </mxCell>
        <mxCell id="1YkeTyR81IGIItmo_7Jy-40" style="edgeStyle=orthogonalEdgeStyle;rounded=0;orthogonalLoop=1;jettySize=auto;html=1;entryX=0;entryY=0.25;entryDx=0;entryDy=0;entryPerimeter=0;" edge="1" parent="1" source="JfAFxv9XHzVIEhKvCDaF-53" target="JfAFxv9XHzVIEhKvCDaF-57">
          <mxGeometry relative="1" as="geometry" />
        </mxCell>
        <mxCell id="1YkeTyR81IGIItmo_7Jy-41" value="2" style="edgeLabel;html=1;align=center;verticalAlign=middle;resizable=0;points=[];" connectable="0" vertex="1" parent="1YkeTyR81IGIItmo_7Jy-40">
          <mxGeometry x="0.1167" relative="1" as="geometry">
            <mxPoint x="-12" y="-3" as="offset" />
          </mxGeometry>
        </mxCell>
        <mxCell id="1YkeTyR81IGIItmo_7Jy-50" value="&lt;font style=&quot;font-size: 8px;&quot;&gt;0/0&lt;/font&gt;" style="text;html=1;align=center;verticalAlign=middle;resizable=0;points=[];autosize=1;strokeColor=none;fillColor=none;" vertex="1" parent="1">
          <mxGeometry x="10" y="40" width="30" height="30" as="geometry" />
        </mxCell>
        <mxCell id="1YkeTyR81IGIItmo_7Jy-51" value="&lt;font style=&quot;font-size: 8px;&quot;&gt;1/1&lt;/font&gt;" style="text;html=1;align=center;verticalAlign=middle;resizable=0;points=[];autosize=1;strokeColor=none;fillColor=none;" vertex="1" parent="1">
          <mxGeometry x="85" y="40" width="30" height="30" as="geometry" />
        </mxCell>
        <mxCell id="1YkeTyR81IGIItmo_7Jy-52" value="&lt;font style=&quot;font-size: 8px;&quot;&gt;4/4&lt;/font&gt;" style="text;html=1;align=center;verticalAlign=middle;resizable=0;points=[];autosize=1;strokeColor=none;fillColor=none;" vertex="1" parent="1">
          <mxGeometry x="156.25" y="40" width="30" height="30" as="geometry" />
        </mxCell>
        <mxCell id="1YkeTyR81IGIItmo_7Jy-53" value="&lt;font style=&quot;font-size: 8px;&quot;&gt;7/7&lt;/font&gt;" style="text;html=1;align=center;verticalAlign=middle;resizable=0;points=[];autosize=1;strokeColor=none;fillColor=none;" vertex="1" parent="1">
          <mxGeometry x="226.56" y="40" width="30" height="30" as="geometry" />
        </mxCell>
        <mxCell id="1YkeTyR81IGIItmo_7Jy-55" value="&lt;font style=&quot;font-size: 8px;&quot;&gt;10/10&lt;/font&gt;" style="text;html=1;align=center;verticalAlign=middle;resizable=0;points=[];autosize=1;strokeColor=none;fillColor=none;" vertex="1" parent="1">
          <mxGeometry x="300" y="-10" width="40" height="30" as="geometry" />
        </mxCell>
        <mxCell id="1YkeTyR81IGIItmo_7Jy-56" value="&lt;font style=&quot;font-size: 8px;&quot;&gt;11/11&lt;/font&gt;" style="text;html=1;align=center;verticalAlign=middle;resizable=0;points=[];autosize=1;strokeColor=none;fillColor=none;" vertex="1" parent="1">
          <mxGeometry x="384.37" y="-10" width="40" height="30" as="geometry" />
        </mxCell>
        <mxCell id="1YkeTyR81IGIItmo_7Jy-57" value="&lt;font style=&quot;font-size: 8px;&quot;&gt;11/11&lt;/font&gt;" style="text;html=1;align=center;verticalAlign=middle;resizable=0;points=[];autosize=1;strokeColor=none;fillColor=none;" vertex="1" parent="1">
          <mxGeometry x="384.37" y="40" width="40" height="30" as="geometry" />
        </mxCell>
        <mxCell id="1YkeTyR81IGIItmo_7Jy-58" value="&lt;font style=&quot;font-size: 8px;&quot;&gt;11/11&lt;/font&gt;" style="text;html=1;align=center;verticalAlign=middle;resizable=0;points=[];autosize=1;strokeColor=none;fillColor=none;" vertex="1" parent="1">
          <mxGeometry x="384.37" y="90" width="40" height="30" as="geometry" />
        </mxCell>
        <mxCell id="1YkeTyR81IGIItmo_7Jy-59" value="&lt;font style=&quot;font-size: 8px;&quot;&gt;11/11&lt;/font&gt;" style="text;html=1;align=center;verticalAlign=middle;resizable=0;points=[];autosize=1;strokeColor=none;fillColor=none;" vertex="1" parent="1">
          <mxGeometry x="384.37" y="140" width="40" height="30" as="geometry" />
        </mxCell>
        <mxCell id="1YkeTyR81IGIItmo_7Jy-60" value="&lt;font style=&quot;font-size: 8px;&quot;&gt;15/15&lt;/font&gt;" style="text;html=1;align=center;verticalAlign=middle;resizable=0;points=[];autosize=1;strokeColor=none;fillColor=none;" vertex="1" parent="1">
          <mxGeometry x="470" y="-10" width="40" height="30" as="geometry" />
        </mxCell>
        <mxCell id="1YkeTyR81IGIItmo_7Jy-61" value="&lt;font style=&quot;font-size: 8px;&quot;&gt;15/15&lt;/font&gt;" style="text;html=1;align=center;verticalAlign=middle;resizable=0;points=[];autosize=1;strokeColor=none;fillColor=none;" vertex="1" parent="1">
          <mxGeometry x="468.75" y="40" width="40" height="30" as="geometry" />
        </mxCell>
        <mxCell id="1YkeTyR81IGIItmo_7Jy-62" value="&lt;font style=&quot;font-size: 8px;&quot;&gt;15/15&lt;/font&gt;" style="text;html=1;align=center;verticalAlign=middle;resizable=0;points=[];autosize=1;strokeColor=none;fillColor=none;" vertex="1" parent="1">
          <mxGeometry x="468.75" y="90" width="40" height="30" as="geometry" />
        </mxCell>
        <mxCell id="1YkeTyR81IGIItmo_7Jy-63" value="&lt;font style=&quot;font-size: 8px;&quot;&gt;15/15&lt;/font&gt;" style="text;html=1;align=center;verticalAlign=middle;resizable=0;points=[];autosize=1;strokeColor=none;fillColor=none;" vertex="1" parent="1">
          <mxGeometry x="468.75" y="140" width="40" height="30" as="geometry" />
        </mxCell>
        <mxCell id="1YkeTyR81IGIItmo_7Jy-64" value="&lt;font style=&quot;font-size: 8px;&quot;&gt;18/18&lt;/font&gt;" style="text;html=1;align=center;verticalAlign=middle;resizable=0;points=[];autosize=1;strokeColor=none;fillColor=none;" vertex="1" parent="1">
          <mxGeometry x="590" y="90" width="40" height="30" as="geometry" />
        </mxCell>
        <mxCell id="1YkeTyR81IGIItmo_7Jy-65" value="&lt;font style=&quot;font-size: 8px;&quot;&gt;22/22&lt;/font&gt;" style="text;html=1;align=center;verticalAlign=middle;resizable=0;points=[];autosize=1;strokeColor=none;fillColor=none;" vertex="1" parent="1">
          <mxGeometry x="660" y="90" width="40" height="30" as="geometry" />
        </mxCell>
        <mxCell id="1YkeTyR81IGIItmo_7Jy-66" value="&lt;span style=&quot;font-size: 8px;&quot;&gt;24/23&lt;/span&gt;" style="text;html=1;align=center;verticalAlign=middle;resizable=0;points=[];autosize=1;strokeColor=none;fillColor=none;" vertex="1" parent="1">
          <mxGeometry x="40" y="250" width="40" height="30" as="geometry" />
        </mxCell>
        <mxCell id="1YkeTyR81IGIItmo_7Jy-67" value="&lt;font style=&quot;font-size: 8px;&quot;&gt;23/23&lt;/font&gt;" style="text;html=1;align=center;verticalAlign=middle;resizable=0;points=[];autosize=1;strokeColor=none;fillColor=none;" vertex="1" parent="1">
          <mxGeometry x="40" y="310" width="40" height="30" as="geometry" />
        </mxCell>
        <mxCell id="1YkeTyR81IGIItmo_7Jy-68" value="&lt;span style=&quot;font-size: 8px;&quot;&gt;27/27&lt;/span&gt;" style="text;html=1;align=center;verticalAlign=middle;resizable=0;points=[];autosize=1;strokeColor=none;fillColor=none;" vertex="1" parent="1">
          <mxGeometry x="120" y="280" width="40" height="30" as="geometry" />
        </mxCell>
        <mxCell id="1YkeTyR81IGIItmo_7Jy-69" value="&lt;span style=&quot;font-size: 8px;&quot;&gt;29/29&lt;/span&gt;" style="text;html=1;align=center;verticalAlign=middle;resizable=0;points=[];autosize=1;strokeColor=none;fillColor=none;" vertex="1" parent="1">
          <mxGeometry x="200" y="250" width="40" height="30" as="geometry" />
        </mxCell>
        <mxCell id="1YkeTyR81IGIItmo_7Jy-70" value="&lt;span style=&quot;font-size: 8px;&quot;&gt;29/29&lt;/span&gt;" style="text;html=1;align=center;verticalAlign=middle;resizable=0;points=[];autosize=1;strokeColor=none;fillColor=none;" vertex="1" parent="1">
          <mxGeometry x="263.12" y="300" width="40" height="30" as="geometry" />
        </mxCell>
        <mxCell id="1YkeTyR81IGIItmo_7Jy-71" value="&lt;span style=&quot;font-size: 8px;&quot;&gt;31/31&lt;/span&gt;" style="text;html=1;align=center;verticalAlign=middle;resizable=0;points=[];autosize=1;strokeColor=none;fillColor=none;" vertex="1" parent="1">
          <mxGeometry x="360" y="250" width="40" height="30" as="geometry" />
        </mxCell>
        <mxCell id="1YkeTyR81IGIItmo_7Jy-72" value="&lt;span style=&quot;font-size: 8px;&quot;&gt;31/31&lt;/span&gt;" style="text;html=1;align=center;verticalAlign=middle;resizable=0;points=[];autosize=1;strokeColor=none;fillColor=none;" vertex="1" parent="1">
          <mxGeometry x="360" y="310" width="40" height="30" as="geometry" />
        </mxCell>
        <mxCell id="1YkeTyR81IGIItmo_7Jy-73" value="&lt;span style=&quot;font-size: 8px;&quot;&gt;52/52&lt;/span&gt;" style="text;html=1;align=center;verticalAlign=middle;resizable=0;points=[];autosize=1;strokeColor=none;fillColor=none;" vertex="1" parent="1">
          <mxGeometry x="458.5" y="280" width="40" height="30" as="geometry" />
        </mxCell>
        <mxCell id="1YkeTyR81IGIItmo_7Jy-74" value="&lt;span style=&quot;font-size: 8px;&quot;&gt;60/60&lt;/span&gt;" style="text;html=1;align=center;verticalAlign=middle;resizable=0;points=[];autosize=1;strokeColor=none;fillColor=none;" vertex="1" parent="1">
          <mxGeometry x="530" y="280" width="40" height="30" as="geometry" />
        </mxCell>
        <mxCell id="1YkeTyR81IGIItmo_7Jy-75" value="&lt;span style=&quot;font-size: 8px;&quot;&gt;64/64&lt;/span&gt;" style="text;html=1;align=center;verticalAlign=middle;resizable=0;points=[];autosize=1;strokeColor=none;fillColor=none;" vertex="1" parent="1">
          <mxGeometry x="40" y="410" width="40" height="30" as="geometry" />
        </mxCell>
        <mxCell id="1YkeTyR81IGIItmo_7Jy-76" value="&lt;span style=&quot;font-size: 8px;&quot;&gt;64/64&lt;/span&gt;" style="text;html=1;align=center;verticalAlign=middle;resizable=0;points=[];autosize=1;strokeColor=none;fillColor=none;" vertex="1" parent="1">
          <mxGeometry x="40" y="470" width="40" height="30" as="geometry" />
        </mxCell>
        <mxCell id="1YkeTyR81IGIItmo_7Jy-77" value="&lt;span style=&quot;font-size: 8px;&quot;&gt;71/71&lt;/span&gt;" style="text;html=1;align=center;verticalAlign=middle;resizable=0;points=[];autosize=1;strokeColor=none;fillColor=none;" vertex="1" parent="1">
          <mxGeometry x="140" y="435" width="40" height="30" as="geometry" />
        </mxCell>
        <mxCell id="1YkeTyR81IGIItmo_7Jy-78" value="&lt;span style=&quot;font-size: 8px;&quot;&gt;75/75&lt;/span&gt;" style="text;html=1;align=center;verticalAlign=middle;resizable=0;points=[];autosize=1;strokeColor=none;fillColor=none;" vertex="1" parent="1">
          <mxGeometry x="223.12" y="435" width="40" height="30" as="geometry" />
        </mxCell>
        <mxCell id="z2k_7jXKvmVWs2d7WAhr-1" value="&lt;div style=&quot;font-size: 8px;&quot;&gt;0&lt;/div&gt;" style="text;html=1;align=center;verticalAlign=middle;resizable=0;points=[];autosize=1;strokeColor=none;fillColor=none;" vertex="1" parent="1">
          <mxGeometry x="10" y="60" width="30" height="20" as="geometry" />
        </mxCell>
        <mxCell id="z2k_7jXKvmVWs2d7WAhr-2" value="&lt;div style=&quot;font-size: 8px;&quot;&gt;0&lt;/div&gt;" style="text;html=1;align=center;verticalAlign=middle;resizable=0;points=[];autosize=1;strokeColor=none;fillColor=none;" vertex="1" parent="1">
          <mxGeometry x="85" y="60" width="30" height="20" as="geometry" />
        </mxCell>
        <mxCell id="z2k_7jXKvmVWs2d7WAhr-3" value="&lt;div style=&quot;font-size: 8px;&quot;&gt;0&lt;/div&gt;" style="text;html=1;align=center;verticalAlign=middle;resizable=0;points=[];autosize=1;strokeColor=none;fillColor=none;" vertex="1" parent="1">
          <mxGeometry x="156.25" y="60" width="30" height="20" as="geometry" />
        </mxCell>
        <mxCell id="z2k_7jXKvmVWs2d7WAhr-4" value="&lt;div style=&quot;font-size: 8px;&quot;&gt;0&lt;/div&gt;" style="text;html=1;align=center;verticalAlign=middle;resizable=0;points=[];autosize=1;strokeColor=none;fillColor=none;" vertex="1" parent="1">
          <mxGeometry x="226.56" y="60" width="30" height="20" as="geometry" />
        </mxCell>
        <mxCell id="z2k_7jXKvmVWs2d7WAhr-5" value="&lt;div style=&quot;font-size: 8px;&quot;&gt;0&lt;/div&gt;" style="text;html=1;align=center;verticalAlign=middle;resizable=0;points=[];autosize=1;strokeColor=none;fillColor=none;" vertex="1" parent="1">
          <mxGeometry x="320" width="30" height="20" as="geometry" />
        </mxCell>
        <mxCell id="z2k_7jXKvmVWs2d7WAhr-6" value="&lt;div style=&quot;font-size: 8px;&quot;&gt;0&lt;/div&gt;" style="text;html=1;align=center;verticalAlign=middle;resizable=0;points=[];autosize=1;strokeColor=none;fillColor=none;" vertex="1" parent="1">
          <mxGeometry x="410" width="30" height="20" as="geometry" />
        </mxCell>
        <mxCell id="z2k_7jXKvmVWs2d7WAhr-7" value="&lt;div style=&quot;font-size: 8px;&quot;&gt;0&lt;/div&gt;" style="text;html=1;align=center;verticalAlign=middle;resizable=0;points=[];autosize=1;strokeColor=none;fillColor=none;" vertex="1" parent="1">
          <mxGeometry x="410" y="50" width="30" height="20" as="geometry" />
        </mxCell>
        <mxCell id="z2k_7jXKvmVWs2d7WAhr-8" value="&lt;div style=&quot;font-size: 8px;&quot;&gt;0&lt;/div&gt;" style="text;html=1;align=center;verticalAlign=middle;resizable=0;points=[];autosize=1;strokeColor=none;fillColor=none;" vertex="1" parent="1">
          <mxGeometry x="410" y="150" width="30" height="20" as="geometry" />
        </mxCell>
        <mxCell id="z2k_7jXKvmVWs2d7WAhr-9" value="&lt;div style=&quot;font-size: 8px;&quot;&gt;0&lt;/div&gt;" style="text;html=1;align=center;verticalAlign=middle;resizable=0;points=[];autosize=1;strokeColor=none;fillColor=none;" vertex="1" parent="1">
          <mxGeometry x="410" y="100" width="30" height="20" as="geometry" />
        </mxCell>
        <mxCell id="z2k_7jXKvmVWs2d7WAhr-10" value="&lt;div style=&quot;font-size: 8px;&quot;&gt;0&lt;/div&gt;" style="text;html=1;align=center;verticalAlign=middle;resizable=0;points=[];autosize=1;strokeColor=none;fillColor=none;" vertex="1" parent="1">
          <mxGeometry x="498.5" y="60" width="30" height="20" as="geometry" />
        </mxCell>
        <mxCell id="z2k_7jXKvmVWs2d7WAhr-11" value="&lt;div style=&quot;font-size: 8px;&quot;&gt;0&lt;/div&gt;" style="text;html=1;align=center;verticalAlign=middle;resizable=0;points=[];autosize=1;strokeColor=none;fillColor=none;" vertex="1" parent="1">
          <mxGeometry x="498.5" width="30" height="20" as="geometry" />
        </mxCell>
        <mxCell id="z2k_7jXKvmVWs2d7WAhr-12" value="&lt;div style=&quot;font-size: 8px;&quot;&gt;0&lt;/div&gt;" style="text;html=1;align=center;verticalAlign=middle;resizable=0;points=[];autosize=1;strokeColor=none;fillColor=none;" vertex="1" parent="1">
          <mxGeometry x="494.5" y="154" width="30" height="20" as="geometry" />
        </mxCell>
        <mxCell id="z2k_7jXKvmVWs2d7WAhr-13" value="&lt;div style=&quot;font-size: 8px;&quot;&gt;0&lt;/div&gt;" style="text;html=1;align=center;verticalAlign=middle;resizable=0;points=[];autosize=1;strokeColor=none;fillColor=none;" vertex="1" parent="1">
          <mxGeometry x="494.5" y="100" width="30" height="20" as="geometry" />
        </mxCell>
        <mxCell id="z2k_7jXKvmVWs2d7WAhr-14" value="&lt;div style=&quot;font-size: 8px;&quot;&gt;0&lt;/div&gt;" style="text;html=1;align=center;verticalAlign=middle;resizable=0;points=[];autosize=1;strokeColor=none;fillColor=none;" vertex="1" parent="1">
          <mxGeometry x="605" y="105" width="30" height="20" as="geometry" />
        </mxCell>
        <mxCell id="z2k_7jXKvmVWs2d7WAhr-15" value="&lt;div style=&quot;font-size: 8px;&quot;&gt;0&lt;/div&gt;" style="text;html=1;align=center;verticalAlign=middle;resizable=0;points=[];autosize=1;strokeColor=none;fillColor=none;" vertex="1" parent="1">
          <mxGeometry x="683" y="105" width="30" height="20" as="geometry" />
        </mxCell>
        <mxCell id="z2k_7jXKvmVWs2d7WAhr-16" value="&lt;div style=&quot;font-size: 8px;&quot;&gt;0&lt;/div&gt;" style="text;html=1;align=center;verticalAlign=middle;resizable=0;points=[];autosize=1;strokeColor=none;fillColor=none;" vertex="1" parent="1">
          <mxGeometry x="61" y="322" width="30" height="20" as="geometry" />
        </mxCell>
        <mxCell id="z2k_7jXKvmVWs2d7WAhr-17" value="&lt;div style=&quot;font-size: 8px;&quot;&gt;1&lt;/div&gt;" style="text;html=1;align=center;verticalAlign=middle;resizable=0;points=[];autosize=1;strokeColor=none;fillColor=none;" vertex="1" parent="1">
          <mxGeometry x="61" y="260" width="30" height="20" as="geometry" />
        </mxCell>
        <mxCell id="z2k_7jXKvmVWs2d7WAhr-18" value="&lt;div style=&quot;font-size: 8px;&quot;&gt;0&lt;/div&gt;" style="text;html=1;align=center;verticalAlign=middle;resizable=0;points=[];autosize=1;strokeColor=none;fillColor=none;" vertex="1" parent="1">
          <mxGeometry x="136" y="296" width="30" height="20" as="geometry" />
        </mxCell>
        <mxCell id="z2k_7jXKvmVWs2d7WAhr-19" value="&lt;div style=&quot;font-size: 8px;&quot;&gt;0&lt;/div&gt;" style="text;html=1;align=center;verticalAlign=middle;resizable=0;points=[];autosize=1;strokeColor=none;fillColor=none;" vertex="1" parent="1">
          <mxGeometry x="223.12" y="262" width="30" height="20" as="geometry" />
        </mxCell>
        <mxCell id="z2k_7jXKvmVWs2d7WAhr-20" value="&lt;div style=&quot;font-size: 8px;&quot;&gt;0&lt;/div&gt;" style="text;html=1;align=center;verticalAlign=middle;resizable=0;points=[];autosize=1;strokeColor=none;fillColor=none;" vertex="1" parent="1">
          <mxGeometry x="286" y="313" width="30" height="20" as="geometry" />
        </mxCell>
        <mxCell id="z2k_7jXKvmVWs2d7WAhr-21" value="&lt;div style=&quot;font-size: 8px;&quot;&gt;0&lt;/div&gt;" style="text;html=1;align=center;verticalAlign=middle;resizable=0;points=[];autosize=1;strokeColor=none;fillColor=none;" vertex="1" parent="1">
          <mxGeometry x="384" y="260" width="30" height="20" as="geometry" />
        </mxCell>
        <mxCell id="z2k_7jXKvmVWs2d7WAhr-22" value="&lt;div style=&quot;font-size: 8px;&quot;&gt;0&lt;/div&gt;" style="text;html=1;align=center;verticalAlign=middle;resizable=0;points=[];autosize=1;strokeColor=none;fillColor=none;" vertex="1" parent="1">
          <mxGeometry x="384" y="322" width="30" height="20" as="geometry" />
        </mxCell>
        <mxCell id="z2k_7jXKvmVWs2d7WAhr-23" value="&lt;div style=&quot;font-size: 8px;&quot;&gt;0&lt;/div&gt;" style="text;html=1;align=center;verticalAlign=middle;resizable=0;points=[];autosize=1;strokeColor=none;fillColor=none;" vertex="1" parent="1">
          <mxGeometry x="481.25" y="293" width="30" height="20" as="geometry" />
        </mxCell>
        <mxCell id="z2k_7jXKvmVWs2d7WAhr-24" value="&lt;div style=&quot;font-size: 8px;&quot;&gt;0&lt;/div&gt;" style="text;html=1;align=center;verticalAlign=middle;resizable=0;points=[];autosize=1;strokeColor=none;fillColor=none;" vertex="1" parent="1">
          <mxGeometry x="550" y="290" width="30" height="20" as="geometry" />
        </mxCell>
        <mxCell id="z2k_7jXKvmVWs2d7WAhr-25" value="&lt;div style=&quot;font-size: 8px;&quot;&gt;0&lt;/div&gt;" style="text;html=1;align=center;verticalAlign=middle;resizable=0;points=[];autosize=1;strokeColor=none;fillColor=none;" vertex="1" parent="1">
          <mxGeometry x="60" y="422" width="30" height="20" as="geometry" />
        </mxCell>
        <mxCell id="z2k_7jXKvmVWs2d7WAhr-26" value="&lt;div style=&quot;font-size: 8px;&quot;&gt;0&lt;/div&gt;" style="text;html=1;align=center;verticalAlign=middle;resizable=0;points=[];autosize=1;strokeColor=none;fillColor=none;" vertex="1" parent="1">
          <mxGeometry x="60" y="480" width="30" height="20" as="geometry" />
        </mxCell>
        <mxCell id="z2k_7jXKvmVWs2d7WAhr-27" value="&lt;div style=&quot;font-size: 8px;&quot;&gt;0&lt;/div&gt;" style="text;html=1;align=center;verticalAlign=middle;resizable=0;points=[];autosize=1;strokeColor=none;fillColor=none;" vertex="1" parent="1">
          <mxGeometry x="160" y="450" width="30" height="20" as="geometry" />
        </mxCell>
        <mxCell id="z2k_7jXKvmVWs2d7WAhr-28" value="&lt;div style=&quot;font-size: 8px;&quot;&gt;0&lt;/div&gt;" style="text;html=1;align=center;verticalAlign=middle;resizable=0;points=[];autosize=1;strokeColor=none;fillColor=none;" vertex="1" parent="1">
          <mxGeometry x="240" y="450" width="30" height="20" as="geometry" />
        </mxCell>
      </root>
    </mxGraphModel>
  </diagram>
</mxfile>
